<?xml version="1.0" encoding="UTF-8" standalone="no"?>
<!DOCTYPE svg PUBLIC "-//W3C//DTD SVG 1.1//EN"
 "http://www.w3.org/Graphics/SVG/1.1/DTD/svg11.dtd">
<!-- Generated by graphviz version 2.38.0 (20140413.2041)
 -->
<!-- Title: G Pages: 1 -->
<svg width="1259pt" height="1557pt"
 viewBox="0.00 0.00 1259.00 1557.05" xmlns="http://www.w3.org/2000/svg" xmlns:xlink="http://www.w3.org/1999/xlink">
<g id="graph0" class="graph" transform="scale(1 1) rotate(0) translate(4 1553.05)">
<title>G</title>
<polygon fill="white" stroke="none" points="-4,4 -4,-1553.05 1255,-1553.05 1255,4 -4,4"/>
<text text-anchor="middle" x="625.5" y="-7.8" font-family="Times,serif" font-size="14.00">CloudForms OpenStack Create Server Workflow</text>
<g id="clust1" class="cluster"><title>cluster0</title>
<polygon fill="none" stroke="blue" points="290,-403 290,-1204 610,-1204 610,-403 290,-403"/>
<text text-anchor="middle" x="450" y="-1188.8" font-family="Times,serif" font-size="14.00">VMProvision_VM/OpenStack_template State Machine</text>
</g>
<g id="clust2" class="cluster"><title>clusterCustomizeRequest</title>
<polygon fill="lightgrey" stroke="lightgrey" points="618,-798 618,-1110 862,-1110 862,-798 618,-798"/>
<text text-anchor="middle" x="740" y="-1094.8" font-family="Times,serif" font-size="14.00">openstack_CustomizeRequest</text>
</g>
<g id="clust3" class="cluster"><title>clusterAddVMToService</title>
<polygon fill="lightgrey" stroke="lightgrey" points="8,-307.5 8,-586 282,-586 282,-307.5 8,-307.5"/>
<text text-anchor="middle" x="145" y="-570.8" font-family="Times,serif" font-size="14.00">add_vm_to_service</text>
</g>
<g id="clust4" class="cluster"><title>clusterPostProvision</title>
<polygon fill="lightgrey" stroke="lightgrey" points="1057,-307.5 1057,-680 1243,-680 1243,-307.5 1057,-307.5"/>
<text text-anchor="middle" x="1150" y="-664.8" font-family="Times,serif" font-size="14.00">PostProvision#openstack</text>
</g>
<g id="clust5" class="cluster"><title>clusterRegisterWithCloudFlare</title>
<polygon fill="lightgrey" stroke="lightgrey" points="618,-31 618,-478 878,-478 878,-31 618,-31"/>
<text text-anchor="middle" x="748" y="-462.8" font-family="Times,serif" font-size="14.00">register_openstack_vm</text>
</g>
<!-- CustomizeRequest#openstack -->
<g id="node1" class="node"><title>CustomizeRequest#openstack</title>
<polygon fill="lightblue" stroke="lightblue" points="601.5,-1173 422.5,-1173 422.5,-1137 601.5,-1137 601.5,-1173"/>
<text text-anchor="middle" x="512" y="-1151.3" font-family="Times,serif" font-size="14.00">CustomizeRequest#openstack</text>
</g>
<!-- Placement -->
<g id="node2" class="node"><title>Placement</title>
<polygon fill="lightgrey" stroke="black" points="549,-1079 475,-1079 475,-1043 549,-1043 549,-1079"/>
<text text-anchor="middle" x="512" y="-1057.3" font-family="Times,serif" font-size="14.00">Placement</text>
</g>
<!-- CustomizeRequest#openstack&#45;&gt;Placement -->
<g id="edge1" class="edge"><title>CustomizeRequest#openstack&#45;&gt;Placement</title>
<path fill="none" stroke="black" d="M512,-1136.7C512,-1123.46 512,-1104.95 512,-1089.66"/>
<polygon fill="black" stroke="black" points="515.5,-1089.23 512,-1079.23 508.5,-1089.23 515.5,-1089.23"/>
</g>
<!-- Set Tags(project, owner association) -->
<g id="node10" class="node"><title>Set Tags(project, owner association)</title>
<polygon fill="white" stroke="white" points="844.5,-1079 629.5,-1079 629.5,-1043 844.5,-1043 844.5,-1079"/>
<text text-anchor="middle" x="737" y="-1057.3" font-family="Times,serif" font-size="14.00">Set Tags(project, owner association)</text>
</g>
<!-- CustomizeRequest#openstack&#45;&gt;Set Tags(project, owner association) -->
<g id="edge28" class="edge"><title>CustomizeRequest#openstack&#45;&gt;Set Tags(project, owner association)</title>
<path fill="none" stroke="black" stroke-dasharray="5,2" d="M553.793,-1136.91C572.678,-1129.19 596.032,-1119.64 619.671,-1109.97"/>
</g>
<!-- PreProvision -->
<g id="node3" class="node"><title>PreProvision</title>
<polygon fill="lightgrey" stroke="black" points="555,-1006 469,-1006 469,-970 555,-970 555,-1006"/>
<text text-anchor="middle" x="512" y="-984.3" font-family="Times,serif" font-size="14.00">PreProvision</text>
</g>
<!-- Placement&#45;&gt;PreProvision -->
<g id="edge2" class="edge"><title>Placement&#45;&gt;PreProvision</title>
<path fill="none" stroke="black" d="M512,-1042.81C512,-1034.79 512,-1025.05 512,-1016.07"/>
<polygon fill="black" stroke="black" points="515.5,-1016.03 512,-1006.03 508.5,-1016.03 515.5,-1016.03"/>
</g>
<!-- Provision -->
<g id="node4" class="node"><title>Provision</title>
<polygon fill="lightgrey" stroke="black" points="546,-933 478,-933 478,-897 546,-897 546,-933"/>
<text text-anchor="middle" x="512" y="-911.3" font-family="Times,serif" font-size="14.00">Provision</text>
</g>
<!-- PreProvision&#45;&gt;Provision -->
<g id="edge3" class="edge"><title>PreProvision&#45;&gt;Provision</title>
<path fill="none" stroke="black" d="M512,-969.813C512,-961.789 512,-952.047 512,-943.069"/>
<polygon fill="black" stroke="black" points="515.5,-943.029 512,-933.029 508.5,-943.029 515.5,-943.029"/>
</g>
<!-- CheckProvisioned -->
<g id="node5" class="node"><title>CheckProvisioned</title>
<polygon fill="lightgrey" stroke="black" points="602,-842 486,-842 486,-806 602,-806 602,-842"/>
<text text-anchor="middle" x="544" y="-820.3" font-family="Times,serif" font-size="14.00">CheckProvisioned</text>
</g>
<!-- Provision&#45;&gt;CheckProvisioned -->
<g id="edge4" class="edge"><title>Provision&#45;&gt;CheckProvisioned</title>
<path fill="none" stroke="black" d="M518.17,-896.84C522.774,-884.035 529.151,-866.299 534.417,-851.654"/>
<polygon fill="black" stroke="black" points="537.759,-852.702 537.849,-842.107 531.172,-850.333 537.759,-852.702"/>
</g>
<!-- Provision Request Exception -->
<g id="node30" class="node"><title>Provision Request Exception</title>
<polygon fill="none" stroke="red" points="278.318,-816.544 278.318,-831.456 206.666,-842 105.334,-842 33.6816,-831.456 33.6816,-816.544 105.334,-806 206.666,-806 278.318,-816.544"/>
<polygon fill="none" stroke="red" points="282.315,-813.089 282.315,-834.911 206.958,-846 105.042,-846 29.6845,-834.911 29.6845,-813.089 105.042,-802 206.958,-802 282.315,-813.089"/>
<text text-anchor="middle" x="156" y="-820.3" font-family="Times,serif" font-size="14.00">Provision Request Exception</text>
</g>
<!-- Provision&#45;&gt;Provision Request Exception -->
<g id="edge32" class="edge"><title>Provision&#45;&gt;Provision Request Exception</title>
<path fill="none" stroke="red" stroke-dasharray="1,5" d="M477.865,-905.466C423.069,-891.767 313.944,-864.486 238.034,-845.509"/>
<polygon fill="red" stroke="red" points="238.569,-842.035 228.018,-843.005 236.871,-848.826 238.569,-842.035"/>
<text text-anchor="middle" x="392.5" y="-867.8" font-family="Times,serif" font-size="14.00">exception</text>
</g>
<!-- PostProvision -->
<g id="node6" class="node"><title>PostProvision</title>
<polygon fill="lightblue" stroke="lightblue" points="590,-747 498,-747 498,-711 590,-711 590,-747"/>
<text text-anchor="middle" x="544" y="-725.3" font-family="Times,serif" font-size="14.00">PostProvision</text>
</g>
<!-- CheckProvisioned&#45;&gt;PostProvision -->
<g id="edge5" class="edge"><title>CheckProvisioned&#45;&gt;PostProvision</title>
<path fill="none" stroke="black" d="M544,-805.942C544,-792.394 544,-773.18 544,-757.469"/>
<polygon fill="black" stroke="black" points="547.5,-757.264 544,-747.264 540.5,-757.264 547.5,-757.264"/>
</g>
<!-- Provision Exception -->
<g id="node31" class="node"><title>Provision Exception</title>
<polygon fill="none" stroke="red" points="800.194,-721.544 800.194,-736.456 747.945,-747 674.055,-747 621.806,-736.456 621.806,-721.544 674.055,-711 747.945,-711 800.194,-721.544"/>
<polygon fill="none" stroke="red" points="804.187,-718.27 804.187,-739.73 748.344,-751 673.656,-751 617.813,-739.73 617.813,-718.27 673.656,-707 748.344,-707 804.187,-718.27"/>
<text text-anchor="middle" x="711" y="-725.3" font-family="Times,serif" font-size="14.00">Provision Exception</text>
</g>
<!-- CheckProvisioned&#45;&gt;Provision Exception -->
<g id="edge33" class="edge"><title>CheckProvisioned&#45;&gt;Provision Exception</title>
<path fill="none" stroke="red" stroke-dasharray="1,5" d="M574.63,-805.942C599.696,-791.984 635.559,-772.012 664.217,-756.053"/>
<polygon fill="red" stroke="red" points="666.212,-758.948 673.245,-751.025 662.806,-752.833 666.212,-758.948"/>
<text text-anchor="middle" x="664.5" y="-772.8" font-family="Times,serif" font-size="14.00">exception</text>
</g>
<!-- AddVMToService -->
<g id="node7" class="node"><title>AddVMToService</title>
<polygon fill="lightblue" stroke="lightblue" points="586,-649 468,-649 468,-613 586,-613 586,-649"/>
<text text-anchor="middle" x="527" y="-627.3" font-family="Times,serif" font-size="14.00">AddVMToService</text>
</g>
<!-- PostProvision&#45;&gt;AddVMToService -->
<g id="edge6" class="edge"><title>PostProvision&#45;&gt;AddVMToService</title>
<path fill="none" stroke="black" d="M540.961,-710.837C538.422,-696.503 534.757,-675.807 531.819,-659.216"/>
<polygon fill="black" stroke="black" points="535.203,-658.251 530.013,-649.014 528.31,-659.471 535.203,-658.251"/>
</g>
<!-- Use &#39;public&#39; floating IP pool -->
<g id="node17" class="node"><title>Use &#39;public&#39; floating IP pool</title>
<polygon fill="white" stroke="white" points="1234.5,-649 1065.5,-649 1065.5,-613 1234.5,-613 1234.5,-649"/>
<text text-anchor="middle" x="1150" y="-627.3" font-family="Times,serif" font-size="14.00">Use &#39;public&#39; floating IP pool</text>
</g>
<!-- PostProvision&#45;&gt;Use &#39;public&#39; floating IP pool -->
<g id="edge31" class="edge"><title>PostProvision&#45;&gt;Use &#39;public&#39; floating IP pool</title>
<path fill="none" stroke="black" stroke-dasharray="5,2" d="M590.238,-711.974C596.497,-710.125 602.873,-708.403 609,-707 764.322,-671.43 948.843,-650.241 1057.3,-639.88"/>
</g>
<!-- RegisterWithCloudFlare -->
<g id="node8" class="node"><title>RegisterWithCloudFlare</title>
<polygon fill="lightblue" stroke="lightblue" points="602,-555 452,-555 452,-519 602,-519 602,-555"/>
<text text-anchor="middle" x="527" y="-533.3" font-family="Times,serif" font-size="14.00">RegisterWithCloudFlare</text>
</g>
<!-- AddVMToService&#45;&gt;RegisterWithCloudFlare -->
<g id="edge7" class="edge"><title>AddVMToService&#45;&gt;RegisterWithCloudFlare</title>
<path fill="none" stroke="black" d="M527,-612.696C527,-599.46 527,-580.947 527,-565.663"/>
<polygon fill="black" stroke="black" points="530.5,-565.227 527,-555.227 523.5,-565.227 530.5,-565.227"/>
</g>
<!-- Set retirement date -->
<g id="node14" class="node"><title>Set retirement date</title>
<polygon fill="white" stroke="white" points="256,-555 136,-555 136,-519 256,-519 256,-555"/>
<text text-anchor="middle" x="196" y="-533.3" font-family="Times,serif" font-size="14.00">Set retirement date</text>
</g>
<!-- AddVMToService&#45;&gt;Set retirement date -->
<g id="edge29" class="edge"><title>AddVMToService&#45;&gt;Set retirement date</title>
<path fill="none" stroke="black" stroke-dasharray="5,2" d="M467.751,-624.353C418.149,-618.413 346.045,-606.921 286,-586 284.61,-585.516 283.215,-585.012 281.818,-584.491"/>
</g>
<!-- EmailOwner -->
<g id="node9" class="node"><title>EmailOwner</title>
<polygon fill="lightgrey" stroke="black" points="570,-447 484,-447 484,-411 570,-411 570,-447"/>
<text text-anchor="middle" x="527" y="-425.3" font-family="Times,serif" font-size="14.00">EmailOwner</text>
</g>
<!-- RegisterWithCloudFlare&#45;&gt;EmailOwner -->
<g id="edge8" class="edge"><title>RegisterWithCloudFlare&#45;&gt;EmailOwner</title>
<path fill="none" stroke="black" d="M527,-518.969C527,-502.378 527,-476.883 527,-457.431"/>
<polygon fill="black" stroke="black" points="530.5,-457.341 527,-447.341 523.5,-457.341 530.5,-457.341"/>
</g>
<!-- VM has public IP? -->
<g id="node21" class="node"><title>VM has public IP?</title>
<polygon fill="white" stroke="white" points="736,-447 625.902,-429 736,-411 846.098,-429 736,-447"/>
<polyline fill="none" stroke="white" points="637.745,-430.936 637.745,-427.064 "/>
<polyline fill="none" stroke="white" points="724.157,-412.936 747.843,-412.936 "/>
<polyline fill="none" stroke="white" points="834.255,-427.064 834.255,-430.936 "/>
<polyline fill="none" stroke="white" points="747.843,-445.064 724.157,-445.064 "/>
<text text-anchor="middle" x="736" y="-425.3" font-family="Times,serif" font-size="14.00">VM has public IP?</text>
</g>
<!-- RegisterWithCloudFlare&#45;&gt;VM has public IP? -->
<g id="edge30" class="edge"><title>RegisterWithCloudFlare&#45;&gt;VM has public IP?</title>
<path fill="none" stroke="black" stroke-dasharray="5,2" d="M560.579,-518.969C582.77,-507.715 613.04,-492.363 642.188,-477.579"/>
</g>
<!-- Finish -->
<g id="node29" class="node"><title>Finish</title>
<polygon fill="none" stroke="black" points="554,-351.5 500,-351.5 500,-315.5 554,-315.5 554,-351.5"/>
<text text-anchor="middle" x="527" y="-329.8" font-family="Times,serif" font-size="14.00">Finish</text>
</g>
<!-- EmailOwner&#45;&gt;Finish -->
<g id="edge27" class="edge"><title>EmailOwner&#45;&gt;Finish</title>
<path fill="none" stroke="black" d="M527,-403.319C527,-390.556 527,-374.945 527,-361.819"/>
<polygon fill="black" stroke="black" points="530.5,-361.541 527,-351.541 523.5,-361.541 530.5,-361.541"/>
</g>
<!-- Set flavor(CPU, RAM) -->
<g id="node11" class="node"><title>Set flavor(CPU, RAM)</title>
<polygon fill="white" stroke="white" points="811,-1006 667,-1006 667,-970 811,-970 811,-1006"/>
<text text-anchor="middle" x="739" y="-984.3" font-family="Times,serif" font-size="14.00">Set flavor(CPU, RAM)</text>
</g>
<!-- Set Tags(project, owner association)&#45;&gt;Set flavor(CPU, RAM) -->
<g id="edge9" class="edge"><title>Set Tags(project, owner association)&#45;&gt;Set flavor(CPU, RAM)</title>
<path fill="none" stroke="black" d="M737.484,-1042.81C737.71,-1034.79 737.985,-1025.05 738.237,-1016.07"/>
<polygon fill="black" stroke="black" points="741.737,-1016.12 738.52,-1006.03 734.74,-1015.93 741.737,-1016.12"/>
</g>
<!-- Set placement(tenant,network,etc) -->
<g id="node12" class="node"><title>Set placement(tenant,network,etc)</title>
<polygon fill="white" stroke="white" points="840.5,-933 637.5,-933 637.5,-897 840.5,-897 840.5,-933"/>
<text text-anchor="middle" x="739" y="-911.3" font-family="Times,serif" font-size="14.00">Set placement(tenant,network,etc)</text>
</g>
<!-- Set flavor(CPU, RAM)&#45;&gt;Set placement(tenant,network,etc) -->
<g id="edge10" class="edge"><title>Set flavor(CPU, RAM)&#45;&gt;Set placement(tenant,network,etc)</title>
<path fill="none" stroke="black" d="M739,-969.813C739,-961.789 739,-952.047 739,-943.069"/>
<polygon fill="black" stroke="black" points="742.5,-943.029 739,-933.029 735.5,-943.029 742.5,-943.029"/>
</g>
<!-- Set customization template(cloud&#45;init) -->
<g id="node13" class="node"><title>Set customization template(cloud&#45;init)</title>
<polygon fill="white" stroke="white" points="853.5,-842 626.5,-842 626.5,-806 853.5,-806 853.5,-842"/>
<text text-anchor="middle" x="740" y="-820.3" font-family="Times,serif" font-size="14.00">Set customization template(cloud&#45;init)</text>
</g>
<!-- Set placement(tenant,network,etc)&#45;&gt;Set customization template(cloud&#45;init) -->
<g id="edge11" class="edge"><title>Set placement(tenant,network,etc)&#45;&gt;Set customization template(cloud&#45;init)</title>
<path fill="none" stroke="black" d="M739.193,-896.84C739.334,-884.281 739.528,-866.979 739.691,-852.502"/>
<polygon fill="black" stroke="black" points="743.195,-852.146 739.808,-842.107 736.196,-852.067 743.195,-852.146"/>
</g>
<!-- Lookup parent service and tag this VM to it -->
<g id="node15" class="node"><title>Lookup parent service and tag this VM to it</title>
<polygon fill="white" stroke="white" points="273.5,-447 16.5,-447 16.5,-411 273.5,-411 273.5,-447"/>
<text text-anchor="middle" x="145" y="-425.3" font-family="Times,serif" font-size="14.00">Lookup parent service and tag this VM to it</text>
</g>
<!-- Set retirement date&#45;&gt;Lookup parent service and tag this VM to it -->
<g id="edge12" class="edge"><title>Set retirement date&#45;&gt;Lookup parent service and tag this VM to it</title>
<path fill="none" stroke="black" d="M187.806,-518.969C179.676,-502.071 167.101,-475.935 157.681,-456.356"/>
<polygon fill="black" stroke="black" points="160.833,-454.834 153.343,-447.341 154.525,-457.869 160.833,-454.834"/>
</g>
<!-- Lookup and tag ownership of this VM -->
<g id="node16" class="node"><title>Lookup and tag ownership of this VM</title>
<polygon fill="white" stroke="white" points="258.5,-351.5 31.5,-351.5 31.5,-315.5 258.5,-315.5 258.5,-351.5"/>
<text text-anchor="middle" x="145" y="-329.8" font-family="Times,serif" font-size="14.00">Lookup and tag ownership of this VM</text>
</g>
<!-- Lookup parent service and tag this VM to it&#45;&gt;Lookup and tag ownership of this VM -->
<g id="edge13" class="edge"><title>Lookup parent service and tag this VM to it&#45;&gt;Lookup and tag ownership of this VM</title>
<path fill="none" stroke="black" d="M145,-410.851C145,-397.143 145,-377.669 145,-361.819"/>
<polygon fill="black" stroke="black" points="148.5,-361.541 145,-351.541 141.5,-361.541 148.5,-361.541"/>
</g>
<!-- Has available IP? -->
<g id="node18" class="node"><title>Has available IP?</title>
<polygon fill="white" stroke="white" points="1206,-555 1094,-555 1094,-519 1206,-519 1206,-555"/>
<text text-anchor="middle" x="1150" y="-533.3" font-family="Times,serif" font-size="14.00">Has available IP?</text>
</g>
<!-- Use &#39;public&#39; floating IP pool&#45;&gt;Has available IP? -->
<g id="edge14" class="edge"><title>Use &#39;public&#39; floating IP pool&#45;&gt;Has available IP?</title>
<path fill="none" stroke="black" d="M1150,-612.696C1150,-599.46 1150,-580.947 1150,-565.663"/>
<polygon fill="black" stroke="black" points="1153.5,-565.227 1150,-555.227 1146.5,-565.227 1153.5,-565.227"/>
</g>
<!-- Attach IP to VM -->
<g id="node19" class="node"><title>Attach IP to VM</title>
<polygon fill="white" stroke="white" points="1205.5,-351.5 1096.5,-351.5 1096.5,-315.5 1205.5,-315.5 1205.5,-351.5"/>
<text text-anchor="middle" x="1151" y="-329.8" font-family="Times,serif" font-size="14.00">Attach IP to VM</text>
</g>
<!-- Has available IP?&#45;&gt;Attach IP to VM -->
<g id="edge15" class="edge"><title>Has available IP?&#45;&gt;Attach IP to VM</title>
<path fill="none" stroke="black" d="M1156.83,-518.808C1160.98,-507.432 1165.87,-492.073 1168,-478 1173,-445.043 1172.04,-436.087 1168,-403 1166.3,-389.127 1162.74,-374.018 1159.32,-361.528"/>
<polygon fill="black" stroke="black" points="1162.63,-360.388 1156.52,-351.737 1155.9,-362.314 1162.63,-360.388"/>
<text text-anchor="middle" x="1180.5" y="-425.3" font-family="Times,serif" font-size="14.00">yes</text>
</g>
<!-- Create new IP -->
<g id="node20" class="node"><title>Create new IP</title>
<polygon fill="white" stroke="white" points="1159,-447 1065,-447 1065,-411 1159,-411 1159,-447"/>
<text text-anchor="middle" x="1112" y="-425.3" font-family="Times,serif" font-size="14.00">Create new IP</text>
</g>
<!-- Has available IP?&#45;&gt;Create new IP -->
<g id="edge16" class="edge"><title>Has available IP?&#45;&gt;Create new IP</title>
<path fill="none" stroke="black" d="M1143.89,-518.969C1137.89,-502.224 1128.64,-476.41 1121.64,-456.892"/>
<polygon fill="black" stroke="black" points="1124.89,-455.573 1118.22,-447.341 1118.3,-457.935 1124.89,-455.573"/>
<text text-anchor="middle" x="1143" y="-489.8" font-family="Times,serif" font-size="14.00">no</text>
</g>
<!-- Create new IP&#45;&gt;Attach IP to VM -->
<g id="edge17" class="edge"><title>Create new IP&#45;&gt;Attach IP to VM</title>
<path fill="none" stroke="black" d="M1119.15,-410.851C1124.98,-396.88 1133.31,-376.918 1139.98,-360.909"/>
<polygon fill="black" stroke="black" points="1143.27,-362.117 1143.89,-351.541 1136.81,-359.423 1143.27,-362.117"/>
</g>
<!-- Out of public IPs -->
<g id="node32" class="node"><title>Out of public IPs</title>
<polygon fill="none" stroke="red" points="1045.27,-326.044 1045.27,-340.956 1000.01,-351.5 935.992,-351.5 890.726,-340.956 890.726,-326.044 935.992,-315.5 1000.01,-315.5 1045.27,-326.044"/>
<polygon fill="none" stroke="red" points="1049.27,-322.868 1049.27,-344.132 1000.47,-355.5 935.534,-355.5 886.731,-344.132 886.731,-322.868 935.534,-311.5 1000.47,-311.5 1049.27,-322.868"/>
<text text-anchor="middle" x="968" y="-329.8" font-family="Times,serif" font-size="14.00">Out of public IPs</text>
</g>
<!-- Create new IP&#45;&gt;Out of public IPs -->
<g id="edge34" class="edge"><title>Create new IP&#45;&gt;Out of public IPs</title>
<path fill="none" stroke="red" stroke-dasharray="1,5" d="M1085.59,-410.851C1064.16,-396.939 1033.59,-377.085 1008.98,-361.111"/>
<polygon fill="red" stroke="red" points="1010.85,-358.148 1000.55,-355.638 1007.04,-364.019 1010.85,-358.148"/>
<text text-anchor="middle" x="1084.5" y="-381.8" font-family="Times,serif" font-size="14.00">exception</text>
</g>
<!-- Create\n&lt;vm&#45;name&gt;.yale&#45;nus.edu.sg\nrecord -->
<g id="node22" class="node"><title>Create\n&lt;vm&#45;name&gt;.yale&#45;nus.edu.sg\nrecord</title>
<polygon fill="white" stroke="white" points="819,-360 645,-360 645,-307 819,-307 819,-360"/>
<text text-anchor="middle" x="732" y="-344.8" font-family="Times,serif" font-size="14.00">Create</text>
<text text-anchor="middle" x="732" y="-329.8" font-family="Times,serif" font-size="14.00">&lt;vm&#45;name&gt;.yale&#45;nus.edu.sg</text>
<text text-anchor="middle" x="732" y="-314.8" font-family="Times,serif" font-size="14.00">record</text>
</g>
<!-- VM has public IP?&#45;&gt;Create\n&lt;vm&#45;name&gt;.yale&#45;nus.edu.sg\nrecord -->
<g id="edge18" class="edge"><title>VM has public IP?:s&#45;&gt;Create\n&lt;vm&#45;name&gt;.yale&#45;nus.edu.sg\nrecord</title>
<path fill="none" stroke="black" d="M736,-410C736,-397.079 735.409,-382.932 734.681,-370.412"/>
<polygon fill="black" stroke="black" points="738.168,-370.1 734.047,-360.34 731.182,-370.54 738.168,-370.1"/>
<text text-anchor="middle" x="745.5" y="-381.8" font-family="Times,serif" font-size="14.00">yes</text>
</g>
<!-- VM has private IP? -->
<g id="node23" class="node"><title>VM has private IP?</title>
<polygon fill="white" stroke="white" points="741,-270 627.049,-252 741,-234 854.951,-252 741,-270"/>
<polyline fill="none" stroke="white" points="638.902,-253.872 638.902,-250.128 "/>
<polyline fill="none" stroke="white" points="729.147,-235.872 752.853,-235.872 "/>
<polyline fill="none" stroke="white" points="843.098,-250.128 843.098,-253.872 "/>
<polyline fill="none" stroke="white" points="752.853,-268.128 729.147,-268.128 "/>
<text text-anchor="middle" x="741" y="-248.3" font-family="Times,serif" font-size="14.00">VM has private IP?</text>
</g>
<!-- VM has public IP?&#45;&gt;VM has private IP? -->
<g id="edge19" class="edge"><title>VM has public IP?:e&#45;&gt;VM has private IP?:n</title>
<path fill="none" stroke="black" d="M847,-429C856.172,-429 881.117,-374.041 828,-307 804.454,-277.282 752.564,-305.282 742.653,-280.163"/>
<polygon fill="black" stroke="black" points="746.06,-279.308 741,-270 739.151,-280.432 746.06,-279.308"/>
<text text-anchor="middle" x="864" y="-329.8" font-family="Times,serif" font-size="14.00">no</text>
</g>
<!-- Create\n&lt;vm&#45;name&gt;.yale&#45;nus.edu.sg\nrecord&#45;&gt;VM has private IP? -->
<g id="edge20" class="edge"><title>Create\n&lt;vm&#45;name&gt;.yale&#45;nus.edu.sg\nrecord&#45;&gt;VM has private IP?</title>
<path fill="none" stroke="black" d="M734.897,-306.908C735.876,-298.26 736.972,-288.583 737.961,-279.84"/>
<polygon fill="black" stroke="black" points="741.454,-280.102 739.101,-269.772 734.499,-279.315 741.454,-280.102"/>
</g>
<!-- CloudFlare Exception -->
<g id="node33" class="node"><title>CloudFlare Exception</title>
<polygon fill="none" stroke="red" points="1081.84,-49.5442 1081.84,-64.4558 1025.7,-75 946.3,-75 890.157,-64.4558 890.157,-49.5442 946.3,-39 1025.7,-39 1081.84,-49.5442"/>
<polygon fill="none" stroke="red" points="1085.85,-46.2265 1085.85,-67.7735 1026.07,-79 945.927,-79 886.15,-67.7735 886.15,-46.2265 945.927,-35 1026.07,-35 1085.85,-46.2265"/>
<text text-anchor="middle" x="986" y="-53.3" font-family="Times,serif" font-size="14.00">CloudFlare Exception</text>
</g>
<!-- Create\n&lt;vm&#45;name&gt;.yale&#45;nus.edu.sg\nrecord&#45;&gt;CloudFlare Exception -->
<g id="edge35" class="edge"><title>Create\n&lt;vm&#45;name&gt;.yale&#45;nus.edu.sg\nrecord&#45;&gt;CloudFlare Exception</title>
<path fill="none" stroke="red" stroke-dasharray="1,5" d="M806.061,-306.951C826.411,-297.524 847.418,-285.306 864,-270 920.424,-217.918 958.007,-133.64 975.214,-88.6338"/>
<polygon fill="red" stroke="red" points="978.545,-89.7197 978.768,-79.1272 971.988,-87.2685 978.545,-89.7197"/>
<text text-anchor="middle" x="945.5" y="-204.8" font-family="Times,serif" font-size="14.00">exception</text>
</g>
<!-- Create\n&lt;vm&#45;name&gt;&#45;int.yale&#45;nus.edu.sg\nrecord -->
<g id="node24" class="node"><title>Create\n&lt;vm&#45;name&gt;&#45;int.yale&#45;nus.edu.sg\nrecord</title>
<polygon fill="white" stroke="white" points="819.5,-183 626.5,-183 626.5,-130 819.5,-130 819.5,-183"/>
<text text-anchor="middle" x="723" y="-167.8" font-family="Times,serif" font-size="14.00">Create</text>
<text text-anchor="middle" x="723" y="-152.8" font-family="Times,serif" font-size="14.00">&lt;vm&#45;name&gt;&#45;int.yale&#45;nus.edu.sg</text>
<text text-anchor="middle" x="723" y="-137.8" font-family="Times,serif" font-size="14.00">record</text>
</g>
<!-- VM has private IP?&#45;&gt;Create\n&lt;vm&#45;name&gt;&#45;int.yale&#45;nus.edu.sg\nrecord -->
<g id="edge21" class="edge"><title>VM has private IP?:s&#45;&gt;Create\n&lt;vm&#45;name&gt;&#45;int.yale&#45;nus.edu.sg\nrecord</title>
<path fill="none" stroke="black" d="M741,-234C741,-220.435 738.285,-205.868 734.964,-193.123"/>
<polygon fill="black" stroke="black" points="738.291,-192.024 732.211,-183.347 731.553,-193.921 738.291,-192.024"/>
<text text-anchor="middle" x="749.5" y="-204.8" font-family="Times,serif" font-size="14.00">yes</text>
</g>
<!-- end -->
<g id="node25" class="node"><title>end</title>
<polygon fill="white" stroke="white" points="836,-75 800,-75 800,-39 836,-39 836,-75"/>
<polyline fill="none" stroke="white" points="812,-75 800,-63 "/>
<polyline fill="none" stroke="white" points="800,-51 812,-39 "/>
<polyline fill="none" stroke="white" points="824,-39 836,-51 "/>
<polyline fill="none" stroke="white" points="836,-63 824,-75 "/>
<text text-anchor="middle" x="818" y="-53.3" font-family="Times,serif" font-size="14.00">end</text>
</g>
<!-- VM has private IP?&#45;&gt;end -->
<g id="edge22" class="edge"><title>VM has private IP?:e&#45;&gt;end</title>
<path fill="none" stroke="black" d="M856,-252C923.667,-252 864.565,-136.928 833.823,-84.0331"/>
<polygon fill="black" stroke="black" points="836.719,-82.0537 828.626,-75.2162 830.688,-85.6083 836.719,-82.0537"/>
<text text-anchor="middle" x="887" y="-152.8" font-family="Times,serif" font-size="14.00">no</text>
</g>
<!-- Create\n&lt;vm&#45;name&gt;&#45;int.yale&#45;nus.edu.sg\nrecord&#45;&gt;end -->
<g id="edge23" class="edge"><title>Create\n&lt;vm&#45;name&gt;&#45;int.yale&#45;nus.edu.sg\nrecord&#45;&gt;end</title>
<path fill="none" stroke="black" d="M747.96,-129.883C762.285,-115.181 780.171,-96.8246 794.282,-82.3418"/>
<polygon fill="black" stroke="black" points="796.807,-84.766 801.279,-75.1611 791.793,-79.8809 796.807,-84.766"/>
</g>
<!-- Create\n&lt;vm&#45;name&gt;&#45;int.yale&#45;nus.edu.sg\nrecord&#45;&gt;CloudFlare Exception -->
<g id="edge36" class="edge"><title>Create\n&lt;vm&#45;name&gt;&#45;int.yale&#45;nus.edu.sg\nrecord&#45;&gt;CloudFlare Exception</title>
<path fill="none" stroke="red" stroke-dasharray="1,5" d="M792.1,-129.883C833.436,-114.559 885.482,-95.2644 925.242,-80.5245"/>
<polygon fill="red" stroke="red" points="926.653,-83.734 934.813,-76.9761 924.22,-77.1705 926.653,-83.734"/>
<text text-anchor="middle" x="905.5" y="-100.8" font-family="Times,serif" font-size="14.00">exception</text>
</g>
<!-- OpenStackBuildRequest -->
<g id="node26" class="node"><title>OpenStackBuildRequest</title>
<polygon fill="none" stroke="black" points="586.5,-1549.05 437.5,-1549.05 437.5,-1513.05 586.5,-1513.05 586.5,-1549.05"/>
<text text-anchor="middle" x="512" y="-1527.35" font-family="Times,serif" font-size="14.00">OpenStackBuildRequest</text>
</g>
<!-- CloudForms MIQ\nAutomate Engine -->
<g id="node27" class="node"><title>CloudForms MIQ\nAutomate Engine</title>
<ellipse fill="none" stroke="black" cx="512" cy="-1390.02" rx="82.0476" ry="82.0476"/>
<ellipse fill="none" stroke="black" cx="512" cy="-1390.02" rx="86.0488" ry="86.0488"/>
<text text-anchor="middle" x="512" y="-1393.82" font-family="Times,serif" font-size="14.00">CloudForms MIQ</text>
<text text-anchor="middle" x="512" y="-1378.82" font-family="Times,serif" font-size="14.00">Automate Engine</text>
</g>
<!-- OpenStackBuildRequest&#45;&gt;CloudForms MIQ\nAutomate Engine -->
<g id="edge24" class="edge"><title>OpenStackBuildRequest&#45;&gt;CloudForms MIQ\nAutomate Engine</title>
<path fill="none" stroke="black" d="M512,-1513C512,-1505.66 512,-1496.45 512,-1486.4"/>
<polygon fill="black" stroke="black" points="515.5,-1486.11 512,-1476.11 508.5,-1486.11 515.5,-1486.11"/>
</g>
<!-- VMProvision_VM -->
<g id="node28" class="node"><title>VMProvision_VM</title>
<polygon fill="none" stroke="black" points="572,-1267 452,-1267 452,-1231 572,-1231 572,-1267"/>
<text text-anchor="middle" x="512" y="-1245.3" font-family="Times,serif" font-size="14.00">VMProvision_VM</text>
</g>
<!-- CloudForms MIQ\nAutomate Engine&#45;&gt;VMProvision_VM -->
<g id="edge25" class="edge"><title>CloudForms MIQ\nAutomate Engine&#45;&gt;VMProvision_VM</title>
<path fill="none" stroke="black" d="M512,-1303.75C512,-1294.17 512,-1285.01 512,-1277.05"/>
<polygon fill="black" stroke="black" points="515.5,-1277.02 512,-1267.02 508.5,-1277.02 515.5,-1277.02"/>
</g>
<!-- VMProvision_VM&#45;&gt;CustomizeRequest#openstack -->
<g id="edge26" class="edge"><title>VMProvision_VM&#45;&gt;CustomizeRequest#openstack</title>
<path fill="none" stroke="black" d="M512,-1230.7C512,-1225.73 512,-1220.02 512,-1214.01"/>
<polygon fill="black" stroke="black" points="515.5,-1213.71 512,-1203.71 508.5,-1213.71 515.5,-1213.71"/>
</g>
</g>
</svg>
